<svg class="payment-method-icon" xmlns="http://www.w3.org/2000/svg" width="49" height="33" viewBox="0 0 49 33"><defs><rect id="a" width="49" height="33" rx="2"/></defs><g fill="none" fill-rule="evenodd"><use fill="#FFF" href="#a"/><rect width="48" height="32" x=".5" y=".5" stroke="#333" rx="2"/><path fill="#000" d="M16.013 19.821a3.943 3.943 0 0 1-1.76.425c-1.242 0-1.902-.786-1.902-2.027 0-1.792 1.258-3.74 3.222-3.74.581 0 1.006.141 1.304.298l.377-1.053c-.235-.125-.88-.33-1.587-.33-2.734 0-4.667 2.389-4.667 4.997 0 1.603.974 2.939 2.939 2.939a5.206 5.206 0 0 0 2.2-.471l-.126-1.038zm7.794 1.336h-1.21c-.016-.456.079-1.178.173-1.964h-.047c-.817 1.571-1.854 2.137-2.923 2.137-1.367 0-2.2-1.021-2.2-2.514 0-2.64 1.949-5.437 5.264-5.437.723 0 1.509.125 2.043.298l-.77 3.96c-.251 1.32-.361 2.672-.33 3.52zm-.817-4.337.456-2.294c-.189-.063-.472-.11-.912-.11-1.964 0-3.583 2.074-3.583 4.18 0 .848.299 1.665 1.305 1.665 1.1 0 2.357-1.43 2.734-3.441zm2.451 3.991c.362.252 1.085.503 1.902.519 1.603 0 2.907-.911 2.907-2.514 0-.849-.581-1.509-1.43-1.996-.676-.377-1.053-.723-1.053-1.273 0-.644.566-1.147 1.367-1.147.566 0 1.053.189 1.305.346l.377-.99c-.283-.189-.896-.377-1.587-.377-1.603 0-2.75 1.021-2.75 2.341 0 .786.487 1.461 1.367 1.949.785.44 1.053.817 1.053 1.398 0 .676-.55 1.242-1.446 1.242-.629 0-1.273-.252-1.634-.472l-.378.974zm7.465.346.707-3.803c.314-1.713 1.587-2.875 2.593-2.875.848 0 1.178.534 1.178 1.241 0 .424-.063.77-.11 1.053l-.817 4.384h1.289l.848-4.447c.079-.393.126-.88.126-1.289 0-1.508-1.037-2.042-1.886-2.042-1.163 0-2.074.597-2.718 1.524h-.032L35.027 10h-1.304L31.6 21.157h1.305z"/></g></svg>