<svg class="payment-method-icon" width="35" height="20" viewBox="0 0 35 20" xmlns="http://www.w3.org/2000/svg"><defs><clipPath id="a"><path d="M1440 0v1339H0V0h1440z"/></clipPath><clipPath id="b"><path d="M8.75 0v15.724H0V0h8.75z"/></clipPath><clipPath id="c"><path d="M2.654 3.216a10 10 0 0 1 13.525-1.078A9.982 9.982 0 0 0 12.36 10a9.983 9.983 0 0 0 3.82 7.862A10 10 0 0 1 2.653 3.216z"/></clipPath><clipPath id="d"><path d="M10.55 1.006A10 10 0 1 1 0 17.862 10.001 10.001 0 0 0 0 2.138a10 10 0 0 1 10.55-1.132z"/></clipPath></defs><g clip-path="url(#a)" transform="translate(-1068 -708)"><g clip-path="url(#b)" transform="translate(1081.64 710.138)"><path fill="#FF5E00" d="M0 0h8.75v15.724H0V0z"/></g><g clip-path="url(#c)" transform="translate(1069.835 708)"><path fill="#EB001B" d="M0 0h16.18v20H0V0z"/></g><g clip-path="url(#d)" transform="translate(1086.015 708)"><path fill="#F79E1B" d="M0 0h16.179v20H0V0z"/></g></g></svg>