<svg class="payment-method-icon" width="53" height="16" viewBox="0 0 53 16" xmlns="http://www.w3.org/2000/svg"><defs><clipPath id="a"><path d="M1440 0v1339H0V0h1440z"/></clipPath><clipPath id="b"><path d="M6.87 0 4.271 15.079H0L2.68 0h4.19z"/></clipPath><clipPath id="c"><path d="M6.87 0 4.271 15.079H0L3.435 0h3.434z"/></clipPath><clipPath id="d"><path d="M8.963 0c1.676 0 3.016.335 3.854.67l-.67 3.267-.42-.167c-.753-.335-1.758-.587-3.182-.587-1.676 0-2.43.67-2.43 1.34 0 .754.922 1.173 2.43 1.927 2.513 1.09 3.602 2.43 3.602 4.189 0 3.183-2.932 5.277-7.372 5.277-1.927 0-3.77-.419-4.775-.837l.586-3.435.587.251c1.424.587 2.345.838 4.02.838 1.173 0 2.514-.503 2.514-1.508 0-.67-.503-1.173-2.178-1.927-1.676-.753-3.77-1.926-3.77-4.188C1.76 2.094 4.775 0 8.963 0z"/></clipPath><clipPath id="e"><path d="M8.963 0c1.676 0 3.016.335 3.854.67l-.67 3.267-.42-.167c-.753-.335-1.758-.587-3.182-.587-1.676 0-2.43.67-2.43 1.34 0 .754.922 1.173 2.43 1.927 2.513 1.09 3.602 2.43 3.602 4.189 0 3.183-2.932 5.277-7.372 5.277-1.927 0-3.77-.419-4.775-.837l.586-3.435.587.251c1.424.587 2.345.838 4.02.838 1.173 0 2.514-.503 2.514-1.508 0-.67-.503-1.173-2.178-1.927-1.676-.753-3.016-1.926-3.016-4.188C2.513 2.094 4.775 0 8.963 0z"/></clipPath><clipPath id="f"><path d="m11.728 0 3.518 15.079h-4.02l-.503-2.514H5.36l-.837 2.514H0l6.283-13.99C6.702.084 7.455 0 8.46 0h3.267zM8.796 4.105c-.251.586-.587 1.508-.587 1.508s-1.424 3.685-1.675 4.44v.083h3.518C9.885 9.298 9.047 5.53 9.047 5.53z"/></clipPath><clipPath id="g"><path d="m11.728 0 3.518 15.079h-4.02l-.503-2.514H5.36l-.837 2.514H0l7.288-13.99C7.707.084 8.461 0 9.466 0h2.262zM8.796 4.105c-.251.586-.587 1.508-.587 1.508l-.004.011c-.084.226-1.347 3.619-1.671 4.428v.084h3.518C9.885 9.298 9.047 5.53 9.047 5.53z"/></clipPath><clipPath id="h"><path d="M15.079 0 8.293 15.079H3.77L0 1.675c2.68 1.34 5.11 4.105 5.864 6.618l.419 2.178L10.555 0h4.524z"/></clipPath><clipPath id="i"><path d="M15.079 0 8.293 15.079H3.77L0 1.675c2.68 1.34 5.11 4.105 5.864 6.618l.419 2.178L11.393 0h3.686z"/></clipPath><clipPath id="j"><path d="M7.79 0c.922 0 1.676.251 1.927 1.257l1.508 7.12C9.801 4.607 6.115 1.424.754.167L0 0z"/></clipPath><clipPath id="k"><path d="m0 0 7.79.754c.922 0 1.76.586 2.011 1.592l1.424 5.947C9.801 4.523 5.361 1.257 0 0z"/></clipPath><clipPath id="l"><path d="m2.687.824 5.774 1.773c1.173.419 1.508 1.424 1.759 2.43l1.005 3.266C10.06 5.21 6.876 2.461 2.82.876L2.687.824z"/></clipPath><clipPath id="m"><path d="M0 0c2.68 1.34 5.11 4.105 5.864 6.618l.335 2.094 1.34-3.183 2.848 2.848-2.094 5.026H3.77z"/></clipPath><clipPath id="n"><path d="m.67 0 3.602 3.686H0L.67 0z"/></clipPath><clipPath id="o"><path d="m7.288 0 3.602 3.518c-1.256 1.34-3.435 2.095-6.115 2.095-1.927 0-3.77-.42-4.775-.838L.586 1.34l.587.252c1.424.586 2.345.837 4.02.837 1.173 0 2.514-.502 2.514-1.508C7.79.586 7.623.335 7.288 0z"/></clipPath><clipPath id="p"><path d="m4.915 8.46-.978 2.514.838-2.513.14-.001zm0 0 2.704-6.94c-.047.124-.452 1.212-.86 2.3l-.153.405a123.59 123.59 0 0 1-.658 1.723h3.518A504.422 504.422 0 0 0 8.461 1.34L8.209 0l5.027 4.859 1.424 6.115h-4.021l-.503-2.513-5.221-.001z"/></clipPath></defs><g clip-path="url(#a)" transform="translate(-1001 -710)"><g clip-path="url(#b)" transform="translate(1020.35 710.503)"><path fill="#3B58BF" d="M0 0h6.87v15.079H0V0z"/></g><g clip-path="url(#c)" transform="translate(1020.35 710.503)"><path fill="#293588" d="M0 0h6.87v15.079H0V0z"/></g><g clip-path="url(#d)" transform="translate(1026.969 710)"><path fill="#3B58BF" d="M0 0h12.817v15.916H0V0z"/></g><g clip-path="url(#e)" transform="translate(1026.969 710)"><path fill="#293588" d="M0 0h12.817v15.916H0V0z"/></g><g clip-path="url(#f)" transform="translate(1038.529 710.503)"><path fill="#3B58BF" d="M0 0h15.246v15.079H0V0z"/></g><g clip-path="url(#g)" transform="translate(1038.529 710.503)"><path fill="#293588" d="M0 0h15.246v15.079H0V0z"/></g><g clip-path="url(#h)" transform="translate(1006.361 710.586)"><path fill="#3B58BF" d="M0 0h15.079v15.079H0V0z"/></g><g clip-path="url(#i)" transform="translate(1006.361 710.586)"><path fill="#293588" d="M0 0h15.079v15.079H0V0z"/></g><g clip-path="url(#j)" transform="translate(1001 710.503)"><path fill="#FFBC00" d="M0 0h11.225v8.377H0V0z"/></g><g clip-path="url(#k)" transform="translate(1001 710.503)"><path fill="#F7981C" d="M0 0h11.225v8.293H0V0z"/></g><g clip-path="url(#l)" transform="translate(1001 710.503)"><path fill="#ED7C00" d="M0 0h11.225v8.293H0V0z"/></g><g clip-path="url(#m)" transform="translate(1006.445 712.178)"><path fill="#051244" d="M0 0h10.387v13.403H0V0z"/></g><g clip-path="url(#n)" transform="translate(1020.35 721.895)"><path fill="#051244" d="M0 0h4.272v3.686H0V0z"/></g><g clip-path="url(#o)" transform="translate(1026.969 720.387)"><path fill="#051244" d="M0 0h10.89v5.613H0V0z"/></g><g clip-path="url(#p)" transform="translate(1039.115 714.607)"><path fill="#051244" d="M0 0h14.66v10.974H0V0z"/></g></g></svg>